/* XPM */
static char *_507650772118[] = {
/* columns rows colors chars-per-pixel */
"64 64 183 2 ",
"   c #040404",
".  c #0B0B0B",
"X  c #141414",
"o  c gray11",
"O  c #232323",
"+  c #2C2C2C",
"@  c #2B3B3B",
"#  c #333333",
"$  c #3B3B3B",
"%  c #323B3F",
"&  c #2C3D5B",
"*  c #3A3A44",
"=  c #403851",
"-  c #3F4042",
";  c #3D4551",
":  c #3C4A6D",
">  c #3C5078",
",  c #444444",
"<  c #45454D",
"1  c #4B4B4B",
"2  c #454A4A",
"3  c #50504F",
"4  c #484855",
"5  c #544C5F",
"6  c #4F5351",
"7  c #545454",
"8  c #575856",
"9  c #5C5C5C",
"0  c #585956",
"q  c #605C5F",
"w  c #63635E",
"e  c #697752",
"r  c #474D62",
"t  c #554F61",
"y  c #565162",
"u  c #5B5563",
"i  c #57586A",
"p  c #525E7D",
"a  c #625D6B",
"s  c #635D65",
"d  c #5A6563",
"f  c #486279",
"g  c #5D6979",
"h  c #646464",
"j  c #686767",
"k  c #65646B",
"l  c #6C6C6C",
"z  c #686969",
"x  c #65736A",
"c  c #6F716F",
"v  c #6B7C64",
"b  c #717C6C",
"n  c #6A6370",
"m  c #6D6C73",
"M  c #666C7B",
"N  c #646673",
"B  c #726B73",
"V  c #726D79",
"C  c #6F7372",
"Z  c #68717D",
"A  c #747474",
"S  c #787677",
"D  c #7A7A77",
"F  c #75727C",
"G  c #79767D",
"H  c #7B7B7B",
"J  c #837E7F",
"K  c #789265",
"L  c #75896A",
"P  c #85995D",
"I  c #85807F",
"U  c #8CA467",
"Y  c #9FB46B",
"T  c #96A378",
"R  c #9FCE50",
"E  c #99C059",
"W  c #96C84A",
"Q  c #A9D252",
"!  c #B1D25D",
"~  c #ABD446",
"^  c #A9C465",
"/  c #C2E258",
"(  c #5F768A",
")  c #506E93",
"_  c #6B6A81",
"`  c #677A81",
"'  c #7B7784",
"]  c #7D7D81",
"[  c #7E7D8A",
"{  c #717181",
"}  c #7F7E94",
"|  c #807987",
" . c #837D8A",
".. c #7E8283",
"X. c #838383",
"o. c #878886",
"O. c #83838D",
"+. c #8B8B8B",
"@. c #8A858C",
"#. c #918F89",
"$. c #92918E",
"%. c #868692",
"&. c #8D8693",
"*. c #8E8C93",
"=. c #8A8897",
"-. c #928E9B",
";. c #918A96",
":. c #8E9190",
">. c #939393",
",. c #999692",
"<. c #94939B",
"1. c #9C9C9C",
"2. c #99989C",
"3. c #9FA19D",
"4. c #A0A19F",
"5. c #9E9DAA",
"6. c #9895A2",
"7. c #A19BA5",
"8. c #A29CAA",
"9. c #9DA3A6",
"0. c #A3A3A3",
"q. c #A8A6A6",
"w. c #ABAAA7",
"e. c #A5A3AC",
"r. c #ABA6AB",
"t. c #ACACAC",
"y. c #A7ACAB",
"u. c #B1B2AD",
"i. c #A7A1B0",
"p. c #ADA8B6",
"a. c #B6ADBD",
"s. c #B3B3B3",
"d. c #BCBAB4",
"f. c #B4B5B8",
"g. c #B5BABB",
"h. c #BBBBBB",
"j. c #C2BEBC",
"k. c #BAAFC3",
"l. c #BBB5C2",
"z. c #BDBCC4",
"x. c #C3BCC4",
"c. c #C4BDCD",
"v. c #BFC0C2",
"b. c #C3C3C3",
"n. c #C6CAC9",
"m. c #CCCCCB",
"M. c #C9C1CC",
"N. c #D0CDC8",
"B. c #CFD1C8",
"V. c #CBC4D3",
"C. c #C9C9D2",
"Z. c #D5CFDE",
"A. c #CDD0D3",
"S. c #D4D4D4",
"D. c #DAD6D3",
"F. c #D9D9D6",
"G. c #DCDCDC",
"H. c #D6D2DB",
"J. c #E0DEDC",
"K. c #DBE0DD",
"L. c #E2E2DE",
"P. c #DDDEE1",
"I. c #DDD7E6",
"U. c #E0DFE2",
"Y. c #DEE1E2",
"T. c #E5E5E5",
"R. c #E6E8E6",
"E. c #E9E9E6",
"W. c #E6E6E8",
"Q. c #E9E7E8",
"!. c #E6E9E9",
"~. c #E9E9E9",
"^. c #EDF0EF",
"/. c #F1F2EE",
"(. c #EFEFF1",
"). c #EFF0F1",
"_. c #F3F3F3",
"`. c #FAF7F7",
"'. c #F6FAF6",
"]. c #F8F8F6",
"[. c #F6F7F9",
"{. c #FBFCFB",
"}. c #F8F6FA",
/* pixels */
"G.G.F.G.G.F.P.C.S.,.+       .       .   , A S._.~.T.T.T.T.P.T.T.G.F.S.T.~.~.E.T.T.T.T.T.T.F.T.~.T.~.~.~.T.~.T.~.T.T.T.S.G.!.T.T.",
"F.G.S.S.F.T.P.F.j                       , 9 X 1.~.T.Q.T.T.~.T.T.T.G.G.W.W.~.~.~.T.T.~.~.T.P.T.~.~.T.T.T.~.W.T.~.E.~.~.G.T.~.Q.T.",
"T.P.F.F.S.~.S.#                           +.+   A ~.T.T.~.E.~.~.T.T.G.T.~.~.~.~.!.Q.~.~.E.T.T.T.~.T.L.T.E.~.~.~.~.~.~.Q.E.Q.E.Q.",
"W.W.P.G.S.F.,               .             8 X.  . h.T.T.~.Q.T.T.T.Q.T.T.T.T.T.~.Q.~.~.T.W.~.Q.T.Q.!.W.~.~.~.~.~.~.W.~.~.W.T.~.!.",
"T.T.G.S.F.8   .           .   .           . <.o   7 ~.~.T.~.T.~.~.T.T.T.T.T.T.~.W.E.~.E.E.~.~.E.~.Q.~.W.~.~.~.~.~.~.T.!.~.~.~.T.",
"Q.~.Y.W.1.                            O .   H j     s._.W.T.!.Q.~.T.T.T.~.~.T.T.Q.~.!.Q.T.T.!.W.E.W.~.T.~.~.Q.~._.~.~.~.T.~.~.~.",
"T.~.T.(.<                   # S S S , 7 +.9 O o.X   1 ~.T.W.~.~.T.T.T.~.W.Q.~.T.E.W.!.~.T.T.E.W.~.~.!.T.~.T.~.~.~.~.Q.T.T.~.T.T.",
"F.F.~.t..         .   . o 2 :.b.L.T.G.0.S v.t.h .   . h.T.L.T.T.T.T.~.E.T.~.~.~.~.Q.T.~.T.~.T.W.T.~.Q.E.~.~.!.Q.Q.~.T.T.T.T.~.T.",
"F.Y.w..             X # # 0 o.h.m.m.G.T.G.0.h.T.>.o   G T.F.T.T.T.T.T.T.E.T.T.~.T./.Q.T.).!.R.!.W.T.E.T.W.T.T.).W.T.(.W.W.~.~.~.",
"W.~.1   .       . O + , 2 q $.h.n.A.G.S.S.Q.b.h._.m.O O Y.G.T.T.T.~.~._.!._.^.~.{.s.C./.0.K.~.)././.T.'.~.!.`.r.Y.L.0.(.~.~.~.~.",
"~.(.+           + # + , , z t.x.m.S.F.F.S.T.~.b.m.~.F.# w.~.T.!.F.q.s.t.!.t.g.D.s.X.k S.:.G.F.0.s.t.^.1.m.m.s.A ..A.;.~.~.!.~.Q.",
"G.F.o   .       X O O + $ J t.s.m.S.T.U.F.J.T.Q.b.F._.t.+._.T._.t.$ 1 1 X.j l 9 ] $.% H C Y.1.- 1 0 o.h c 0 >.J - L ] T.~.Q.~.~.",
"C.m.o           . + O o # A +.h.m.F.G.P.F.L.T.T.F.b.~.G.,.~.T._.q.] +.,.1 w.X.+.A A 2.H 9 Y.2.+.+.#.2 f.A +.A S 3.S m Y.E.W.Q.~.",
"S.S.o           . # # O O h :.b.m.G.F.G.F.T.T.T.!.P.T.(.7.S.~.).s.*.>.>.>.0 l 1.u X.5.>.H !.q.,.,.$.,.6 X.:.j +.3.+.%.T.Q.T.T.T.",
"T.T.O   .         O + # . 9 q.b.C.T.T.F.F.T.~.T.T.~.T._.s.h.~.T.T.T.T.T.~.F.Y.L.G._.~.~.!.W.W.W.~.)._.G.~.G.T.~.W.W.W.!.~.T.T.T.",
"T.T.+             X O O . w v.1.F.P.n.S.P.P.U.G.G.~.T.~.F.s.(.Q.T.T.G.T.W.E.T.~.~./.~.~.!.W.E.!.~.~.~.~.E.~.~.W.E.W.~.~.T.~.~.~.",
"S.~.$             X X o . 7 z l H z 9 j H S.S.G.T.h.9 L a.f.~.Q.W.T.G.F.T.T.T.E.~.T.~.~.~.Q.E.!.~.~.T.T.W.E.Q.~.Q.W.~.~.~.T.~.~.",
"S.F.,             X o X . X $ 1 X.s.T.G.v.S.T.G.T.0.z._.b.f.~.~.W.W.G.P.G.T.T.W.~.T.~.T.~.~.T.Q.~.T.~.~.~.E.Q.!.~.E.~.~.~.T.T.~.",
"b.F.9   .         X o X . X 1 q.j + + 1 j s.T.L.m.s.b.w.S.s.J.~.W.G.F.F.G.T.W.~.~.T.~.~.W.~.~.~.W.E.~.T.~.W.E.!.~.~.T.~.T.G.T.~.",
"b.T.H   .         o + .   # +.+     . o   A T.T.b.X.X   X 8 S.~.T.P.F.F.G.T.T.~.~.~.~.E.W.Q.~.~.Q.~.~.~.W.~.Q.~.~._.~.~.T.G.T.W.",
"F./.2.  .         X O   . S $       o t.X , G._.0..   +   1 P.T.T.T.U.T.~.T.T.~.~.~.~.~.~.~.E.~.~.!.~.~.~.~.T.T.T.W.~.T.T.G.~.~.",
"~.~.b..           O o   o 8 o .       S $ >.G.T.A   . 9 7 A G.G.F.P.F.T.T.T.T.Q.~.T.~.T.~.~.W.~.T.Q.~.Q.T.~.Q.~.Q.E.~.~.G.F.T.Q.",
"T.T.s.+ .         . .   o , o 1   1 o   +.m.m.T.H   o   S w.~.L.G.G.S.T.~.T.T.T.~.~.~.~./.~.W.W.~.T.!.~.~.~.~.W.T.~.~.~.T.K.T.~.",
"G.b.h o.#         .     . 9 7 d o +.$ O h.S.S.G.1.X 8 o +.t.~.T.G.F.S.T.T.T.T.~._.~.~.~.~.~.E.W.E.Q.~.~.~.T.~.E.T.W.T.Q.Q.T.W.~.",
"F.q.1 $ # X X o o . .     1 q.S , X o o ,.P.S.Y.s.9 O o :.t.~.T.G.F.G.T.T.T.T.~.~.E.W.~.T.~.Q.~.~.~.~.~.~.T.~.T.T.E.T.Q.~.!.Q.T.",
"S.2.+ o # O X X X   .   . o H 0.,.X.S >.v.P.F.T.S.2.S S h.s.T.T.G.W.T.~.~.T.W._.~.~.~.~.~.T.~.~.T.~.~.~.~._.~.T.T.T.L.!.W.~.~.~.",
"S.t.* O o o . . .       . X j S.S.F.Y.T.G.F.U.W.F.s.Y.K.~.d.F.T.P.~.~.T.~.~.~.~.~.~.~.T.~.~.~.T.~.~.~.~.~.~.~.T.T.T.G.Q.~.~.E.T.",
"F.m.9 O o o . . .         . , m.G.S.G.G.F.S.T.W.~.w.S.~.~.2.C.P.G.~.~.T.E.~.~.~.~.~.~.Q.~.~.~.~.~._._.~.~.~.T.T.T.T.T.~.~.T.!.Q.",
"m.S.H # X X . .           . # 3.F.S.G.T.G.G.S.F.S.0.n.~.Q.+.F.T.G.T.Q.K.T.W.T.T.~.~.T.~.~.~.~.T.~._._.~.~.~.T.L.W.~.T.T.T.T.T.T.",
"A.S.m., X O o .           . # >.G.F.G.T.G.G.F.P.T.b.m.T.T.H G.U.F.T.T.T.~.~.T.~.~.~.~.~.T.~.~.~.~.~.~._.~.T.W.T.W.T.F.G.T.T.~.~.",
"A.F.L.q.+ + O             . O 1.y.H m.T.G.T.S.w.F.] n.T.F.A T.G.F.G.T.G.'.0.G ^.!.T.~.~.~.~.~.Q.~.Q.Q.T.T.W.~.Q.T.T.F.P.T.Q.~.T.",
"D.G.S.F.o.+ o .     .       O < X 4 S.F.~.m.$ 1.s.l r.T.S.o.Q.F.~.[.^.~./.i h _.T.~.E.W.Q.~.~.T.!.E.W.T.T.~.T.T.T.T.F.G.T.T.T.G.",
"P.F.F.F.m.9 X X       .     X O . 7 m.G.b.$ L ,   # t.T.n.2.!.(.m.e.v.{.T.% >._.T.~.E.~.~.~.~.~.~.T.L.T.W.~.T.T.T.G.S.S.F.P.T.G.",
"F.F.F.m.S.7.X .             X O . + n.m.1 1.a.    . d.~.n.9.[.v.' F < ' q.@ v._.T.~.!.T.~.Q.~.~.~.~.F.P.E.Q.~.T.T.F.m.m.S.S.T.T.",
"C.S.C.S.S.t.X               o j = o.T.X.0.(.j   o X t.}.b.t.Y.-.V.Z.C.N * 4 T.~.Q.W.T.~.T.~.T.T.W.T.G.G.T.T.T.~.~.T.S.S.S.m.S.~.",
"G.F.B.S.S.s.o               O H $.4.s.C.F.G.0.+.*.s.U./.d.h.s.a.M.k.M.l.4 k _.~.T.~.~.E.~.~.~.~.T.T.T.F.T.~.~.~.(.Q.T.G.S.m.S.T.",
"S.H.S.S.G.t.o   .           X h 1 9 c G.S.d.H t.t.q.b.T.s.s.t.k.p.l.a.M.t G {.!.Q.!.T.Q.T.~.~.W.T.G.G.K.T.T.T.Q.~.~.~.Q.G.C.A.T.",
"S.F.A.F.G.h.o   .           . $ O O $.F.G.j G S.G.G.S.T.t.t.-.i : _ x.c.y p.{.T.~.~.T.~.~.~.T.T.T.P.G.T.Q.T.T.T.Q.T.T.T.~.F.m.S.",
"F.S.m.m.F.n.O   .           . o X   3.T.m.1.1.z.F.F.S.T.w.v.g f ) >  .c.t S.{.W.~.T.~.~.T.T.T.F.T.Q.~.~.T.T.T.T.T.T.T.T.T.G.B.m.",
"H.S.n.B.F.m.O   X     .     . X . . $.G.H h.S.G.T.T.G.E.s.q.x T L ` Z 8.u Y.W.~.T.~.T.T.T.T.T.G.~.~.~.~.T.T.G.T.G.G.G.T.T.G.S.S.",
"S.F.m.S.S.m.+   X .         . o .   X.b.s g.G.S.S.K.T.Q.s...e / E Y A ..H _.!.E.T.T.T.T.T.T.T.W.~.Q.~.~.T.G.U.G.G.G.L.T.T.T.G.G.",
"S.S.m.m.S.S.#   . .       .   O X   h F.I 1.m., l G.F.P.0.N P Q W ! b i <.{.T.!.T.Y.T.~.E.!.~.Q.E.T.T.T.T.T.T.G.F.G.W.Q.T.T.W.~.",
"A.F.C.S.G.m.+   . .     . . . o X   O t.n.S + O 0.T.T.Y.q.M U R ~ ! d 4 m.{.T.T.G.G.G.~.E.E.!.!.W.~.G.G.T.T.G.F.G.T.T.T.T.T.T.T.",
"S.F.S.S.G.b.o   . . . . .   . o X . . o +.o., 4.T.P.T.F.w.%.x K ^ ^ ; i T.T.P.T.~.T.G.T.W.W.W.G.T.Q.T.T.T.T.P.G.T.T.T.G.G.T.T.T.",
"S.F.S.F.G.0., o   . . . . . X O o     X . 8 b.T.F.S.~.s.0.{ r p ( x < &._.T.T.T.T.T.G.G.T.T.T.F.S.T.W.T.T.T.T.T.T.T.T.U.F.T.T.W.",
"F.G.S.S.F.X., C $   . X X . . . X X   . .   $ S S.T.S.+.f.a d { & M u a.`.T.~.~.T.S.F.F.Y.T.R.R.G.T.~.P.T.W.T.T.T.E.T.~.T.G.T.~.",
"S.F.A.m.G.j , A m.j . o o . .   . .     . .     , +.# u.x.p.%.u h u u T._.T.P.J.T.G.P.T.T.W.W.S.S.Y.T.G.P.Q.T.T.~.T.T.T.G.G.T.~.",
"S.A.n.m.G.j $ j h.T.>.X X O X X . . X . o o o O # . l ].6.l. .m 8.N { `.T.T.~.~.~.N.o.{.[.d.>.S 9.~.E.H T._.~._.~.(.(.W.F.G.T.~.",
"S.A.x.G.1.o + 8 5.D.T.,.# + + o + + , # < 9 +.j.h.h T.Q.| O.7.8.C.&.@._.T.J.S 1.b., G 3.A r.h - v.G.w 6 h.A n.H 0.g.p.C.~.W.!.!.",
"S.S.n.G.l   o 7 t.K.F.T.s.+.# 7 S 5 1 3 j X.1.A.9 1.].S.@.5. .&.7.n 0.{.T.L.o.7 l S j A X.s ..9 P.,.l m h 6 z 8 0...L z._.!.E.~.",
"m.b.N.n.8   . + 4.J.G.S.G.~.n.s w L X.A S >.d.+.  s._.n.F &.6.i.;.a b._.~.j.1 9 j H u S +.q X.k W.#.C z 8 C b.H u A 9 z._.T.W.~.",
"m.m.b.x.#     . o.T.m.m.G.G.S.n.2.A S +.f.h.z o 7 f._.r.B &.{ [ <.a J.~.E.D.l :.u.9 s.,.l j.t.9.S.B.h <.u.j t.A s.I H F.~.T.!.Q.",
"m.m.m.b.o   .   # b.m.m.F.T.m.h.G.S.0.A l 8 . q w.x.~.2. .| -.6.;.n Q.T.T.T.~.T.R./.L.T.W.T.(.~.Y.T.^.R.W.~.G.~.~./.[.~.~.Q.~.T.",
"b.m.L.S   .       >.S.h.m.S.S.b.C.G.~.T.m.h $ b.t.b.Q.B | 2.5.[ -.V Q.U.T.T.T.S.T.F.F.G.F.G.G.P.R.R.T.T.G.T.P.F.G.Y.T.Q.~.~.~.T.",
"h.G.+.. X .   .   O 0.b.b.b.S.C.F.G.T.G.G.+.l h.4.v.T.<.8.{ &.;. . .~.J.U.T.T.T.Q.K.K.T.T.F.S.T.!.!.~.T.K.T.E.T.G.J.T.~.~.~.~.T.",
"G.A o + o X .       o h.b.m.F.F.F.T.T.E.S.9 w t.S m }.7.Z.x.5.&.y 7./.T.T.T.T.~.E.G.G.T.G.G.G.T.T.!.T.T.W.E.T.T.T.T.T.~.T.W.T.E.",
"$.6 $ X O , #     .   8 S.C.G.G.G.T.T._.7.- o.| c O /.2.6.I.Z.;.y T.T.T.T.!.~.Q.T.T.T.G.G.Y.G.T.Q.T.T.G.G.G.T.~.U.G.T.T.T.T.T.P.",
"X.S O X O , 7 X .   .   +.G.A.T.T.J.G.~.9 w o.X.,   H ~.= i a = f.'.T.E.W.T.~.T.T.W.T.F.G.T.T.T.T.W.T.G.G.F.G.~.G.T.W.J.G.T.T.G.",
"j $ X # + O + O X   . . X 0.E.L.T.S.E.h.2 X.o.X.O X O m.G.V n d.{.T.E.~.E.T.T.T.T.J.T.G.G.T.T.~.T.!.T.T.~.G.P.~.T.Q.E.T.G.T.T.T.",
"9 . + + + o # + X . . . . . D T.~.S.T.S X H D c O . . 3 ].{.{.{.!.T.!.W.W.T.T.T.T.T.T.T.Q.~.~.~.T.~.T.T.~.T.T.T.T.~.Q.T.T.T.T.T.",
", X + O O # 9 $ X . X X   .   h T.T.m.+ X A d 7 =   X O q.W.Y.T.~.~.W.T.T.T.T.T.T.T.T.T.E.W.!.Q.~.Q.T.G.G.T.T.G.T.T.T.T.~.T.Q.T.",
"S o O O # , , $ + o + o X   X   1 G.h., X 0 l d w . o + w.T.G.T.T.T.T.W.~.~.T.T.T.~.T.Q.~.Q.~.E.Q.E.T.T.F.T.G.F.F.G.F.T.E.T.T.T.",
"+.o o + # # $ 1 $ + + O O # O o . $ h 1.X q H # D + # D m.G.S.F.~.T.Y.~.T.T.T.T.T.T.T.!.W.T.T.T.~.W.T.T.P.T.T.G.P.G.G.G.T.G.T.~.",
"2., . O # $ - $ 1 j 7 + # q $ o # o 1 w.o o + + I 7 I m.U.T.G.G.T.G.F.T.T.J.T.T.T.T.T.Q.E.T.T.T.~.T.T.~.~.T.G.G.G.G.G.G.T.G.W.T."
};
